<mxfile host="app.diagrams.net" modified="2021-01-07T20:57:23.901Z" agent="5.0 (Windows NT 10.0; Win64; x64) AppleWebKit/537.36 (KHTML, like Gecko) Chrome/87.0.4280.88 Safari/537.36 OPR/73.0.3856.284" etag="poRqN4xihvHyLg8-z91J" version="14.1.5" type="github">
  <diagram id="chUx75y0vAaIqrl9WMwS" name="Page-1">
    <mxGraphModel dx="4103" dy="2082" grid="1" gridSize="10" guides="1" tooltips="1" connect="1" arrows="1" fold="1" page="1" pageScale="1" pageWidth="850" pageHeight="1100" math="0" shadow="0">
      <root>
        <mxCell id="0" />
        <mxCell id="1" parent="0" />
        <mxCell id="q16Zf56dlGf5BPqRnLZV-31" value="" style="rounded=0;whiteSpace=wrap;html=1;" parent="1" vertex="1">
          <mxGeometry x="840" y="-1080" width="1340" height="700" as="geometry" />
        </mxCell>
        <mxCell id="pdMdaDZCg8390fbRViB--1" value="&lt;font&gt;&lt;b&gt;&lt;font style=&quot;font-size: 14px&quot;&gt;Withings Body Scale&lt;/font&gt;&lt;/b&gt;&lt;br&gt;&lt;br&gt;Data to Gather:&lt;br&gt;&lt;ul style=&quot;font-size: 12px&quot;&gt;&lt;li&gt;&lt;font style=&quot;font-size: 12px&quot;&gt;Weight&lt;/font&gt;&lt;/li&gt;&lt;li&gt;Body Fat&lt;/li&gt;&lt;li&gt;Water Content&lt;/li&gt;&lt;li&gt;Muscle Mass&lt;/li&gt;&lt;li&gt;BMI&lt;/li&gt;&lt;/ul&gt;&lt;div style=&quot;font-size: 12px&quot;&gt;&lt;br&gt;&lt;/div&gt;Categories&lt;span style=&quot;font-size: 12px&quot;&gt;&amp;nbsp;of Information&lt;/span&gt;&lt;br&gt;&lt;div style=&quot;font-size: 12px&quot;&gt;&lt;ul&gt;&lt;li&gt;&lt;font style=&quot;font-size: 12px&quot;&gt;&lt;div&gt;Health, Diet Factors, Exercise Factors, Progress&lt;/div&gt;&lt;/font&gt;&lt;/li&gt;&lt;/ul&gt;&lt;div&gt;Services to Research:&lt;/div&gt;&lt;/div&gt;&lt;div style=&quot;font-size: 12px&quot;&gt;&lt;ul&gt;&lt;li&gt;&lt;font style=&quot;font-size: 12px&quot;&gt;&lt;div&gt;Withings, MyFitnessPal,&amp;nbsp;&lt;/div&gt;&lt;/font&gt;&lt;/li&gt;&lt;/ul&gt;&lt;/div&gt;&lt;/font&gt;" style="rounded=0;whiteSpace=wrap;html=1;align=left;verticalAlign=top;" parent="1" vertex="1">
          <mxGeometry x="-2520" y="-1040" width="200" height="280" as="geometry" />
        </mxCell>
        <mxCell id="pdMdaDZCg8390fbRViB--2" value="&lt;b&gt;Buxfer&lt;br&gt;&lt;/b&gt;&lt;br&gt;Data to Gather:&lt;br&gt;&lt;ul&gt;&lt;li&gt;Current Savings&lt;/li&gt;&lt;li&gt;Current Checking&lt;/li&gt;&lt;li&gt;Transaction Information&lt;/li&gt;&lt;ul&gt;&lt;li&gt;Transaction Tags&lt;/li&gt;&lt;li&gt;Transaction Dates&lt;/li&gt;&lt;li&gt;Transaction Amount&lt;/li&gt;&lt;li&gt;Transaction Account&lt;/li&gt;&lt;/ul&gt;&lt;li&gt;Investment Holdings&lt;/li&gt;&lt;li&gt;Debt/Loan Amounts&lt;/li&gt;&lt;/ul&gt;&lt;div&gt;Categories of Information:&lt;/div&gt;&lt;div&gt;&lt;ul&gt;&lt;li&gt;Financial, Budget, Investment Progress, Net Worth&lt;/li&gt;&lt;/ul&gt;&lt;div&gt;Services to Research&lt;/div&gt;&lt;/div&gt;&lt;div&gt;&lt;ul&gt;&lt;li&gt;Buxfer&lt;/li&gt;&lt;/ul&gt;&lt;/div&gt;" style="rounded=0;whiteSpace=wrap;html=1;align=left;" parent="1" vertex="1">
          <mxGeometry x="-2480" y="230" width="200" height="358" as="geometry" />
        </mxCell>
        <mxCell id="pdMdaDZCg8390fbRViB--3" value="&lt;b&gt;&lt;font style=&quot;font-size: 14px&quot;&gt;Fitbit&lt;/font&gt;&lt;/b&gt;&lt;br&gt;&lt;br&gt;Data to Gather:&lt;br&gt;&lt;ul&gt;&lt;li&gt;Calorie Usage&lt;/li&gt;&lt;li&gt;Heartbeat&lt;/li&gt;&lt;li&gt;Step Counter&lt;/li&gt;&lt;/ul&gt;&lt;div&gt;Categories of Information&lt;/div&gt;&lt;div&gt;&lt;ul&gt;&lt;li&gt;Health, Diet Factors, Exercise Factors, Status&lt;/li&gt;&lt;/ul&gt;&lt;div&gt;Services to Research:&lt;/div&gt;&lt;/div&gt;&lt;div&gt;&lt;ul&gt;&lt;li&gt;Fitbit, MyFitnessPal&lt;/li&gt;&lt;/ul&gt;&lt;/div&gt;" style="rounded=0;whiteSpace=wrap;html=1;align=left;verticalAlign=top;" parent="1" vertex="1">
          <mxGeometry x="-2280" y="-1040" width="200" height="280" as="geometry" />
        </mxCell>
        <mxCell id="q16Zf56dlGf5BPqRnLZV-1" value="&lt;b&gt;Privacy&lt;br&gt;&lt;/b&gt;&lt;br&gt;Data to Gather:&lt;br&gt;&lt;ul&gt;&lt;li&gt;Transaction Information&lt;/li&gt;&lt;ul&gt;&lt;li&gt;Transaction Tags&lt;/li&gt;&lt;li&gt;Transaction Dates&lt;/li&gt;&lt;li&gt;Transaction Amount&lt;/li&gt;&lt;li&gt;Transaction Account&lt;/li&gt;&lt;li&gt;Transaction Merchant&lt;/li&gt;&lt;/ul&gt;&lt;/ul&gt;&lt;div&gt;Categories of Information:&lt;/div&gt;&lt;div&gt;&lt;ul&gt;&lt;li&gt;Budget&lt;/li&gt;&lt;/ul&gt;&lt;div&gt;Services to Research&lt;/div&gt;&lt;/div&gt;&lt;div&gt;&lt;ul&gt;&lt;li&gt;Privacy&lt;/li&gt;&lt;/ul&gt;&lt;/div&gt;" style="rounded=0;whiteSpace=wrap;html=1;align=left;" parent="1" vertex="1">
          <mxGeometry x="-2200" y="230" width="200" height="358" as="geometry" />
        </mxCell>
        <mxCell id="q16Zf56dlGf5BPqRnLZV-2" value="&lt;b&gt;Stocks (eTrade, WeBull, Robinhood)&lt;br&gt;&lt;/b&gt;&lt;br&gt;Data to Gather:&lt;br&gt;&lt;ul&gt;&lt;li&gt;Current Investment Value&lt;/li&gt;&lt;li&gt;Investment Growth Percentage&lt;/li&gt;&lt;li&gt;Transaction Information&lt;/li&gt;&lt;ul&gt;&lt;li&gt;Transaction Tags&lt;/li&gt;&lt;li&gt;Transaction Dates&lt;/li&gt;&lt;li&gt;Transaction Amount&lt;/li&gt;&lt;li&gt;Stock Ticker&lt;/li&gt;&lt;li&gt;Share Price&lt;/li&gt;&lt;/ul&gt;&lt;/ul&gt;&lt;div&gt;Categories of Information:&lt;/div&gt;&lt;div&gt;&lt;ul&gt;&lt;li&gt;Investment Progress, Financial Status, Net Worth&lt;/li&gt;&lt;/ul&gt;&lt;div&gt;Services to Research&lt;/div&gt;&lt;/div&gt;&lt;div&gt;&lt;ul&gt;&lt;li&gt;eTrade, WeBull, Robinhood, other options....&lt;/li&gt;&lt;/ul&gt;&lt;/div&gt;" style="rounded=0;whiteSpace=wrap;html=1;align=left;" parent="1" vertex="1">
          <mxGeometry x="-1920" y="230" width="200" height="358" as="geometry" />
        </mxCell>
        <mxCell id="q16Zf56dlGf5BPqRnLZV-14" value="workout" style="shape=table;startSize=30;container=1;collapsible=1;childLayout=tableLayout;fixedRows=1;rowLines=0;fontStyle=1;align=center;resizeLast=1;" parent="1" vertex="1">
          <mxGeometry x="-477.5" y="-895" width="210" height="150" as="geometry" />
        </mxCell>
        <mxCell id="q16Zf56dlGf5BPqRnLZV-15" value="" style="shape=partialRectangle;collapsible=0;dropTarget=0;pointerEvents=0;fillColor=none;top=0;left=0;bottom=1;right=0;points=[[0,0.5],[1,0.5]];portConstraint=eastwest;" parent="q16Zf56dlGf5BPqRnLZV-14" vertex="1">
          <mxGeometry y="30" width="210" height="30" as="geometry" />
        </mxCell>
        <mxCell id="q16Zf56dlGf5BPqRnLZV-16" value="PK" style="shape=partialRectangle;connectable=0;fillColor=none;top=0;left=0;bottom=0;right=0;fontStyle=1;overflow=hidden;" parent="q16Zf56dlGf5BPqRnLZV-15" vertex="1">
          <mxGeometry width="30" height="30" as="geometry" />
        </mxCell>
        <mxCell id="q16Zf56dlGf5BPqRnLZV-17" value="record_id" style="shape=partialRectangle;connectable=0;fillColor=none;top=0;left=0;bottom=0;right=0;align=left;spacingLeft=6;fontStyle=0;overflow=hidden;" parent="q16Zf56dlGf5BPqRnLZV-15" vertex="1">
          <mxGeometry x="30" width="180" height="30" as="geometry" />
        </mxCell>
        <mxCell id="q16Zf56dlGf5BPqRnLZV-18" value="" style="shape=partialRectangle;collapsible=0;dropTarget=0;pointerEvents=0;fillColor=none;top=0;left=0;bottom=0;right=0;points=[[0,0.5],[1,0.5]];portConstraint=eastwest;" parent="q16Zf56dlGf5BPqRnLZV-14" vertex="1">
          <mxGeometry y="60" width="210" height="20" as="geometry" />
        </mxCell>
        <mxCell id="q16Zf56dlGf5BPqRnLZV-19" value="" style="shape=partialRectangle;connectable=0;fillColor=none;top=0;left=0;bottom=0;right=0;editable=1;overflow=hidden;" parent="q16Zf56dlGf5BPqRnLZV-18" vertex="1">
          <mxGeometry width="30" height="20" as="geometry" />
        </mxCell>
        <mxCell id="q16Zf56dlGf5BPqRnLZV-20" value="workout_id" style="shape=partialRectangle;connectable=0;fillColor=none;top=0;left=0;bottom=0;right=0;align=left;spacingLeft=6;overflow=hidden;" parent="q16Zf56dlGf5BPqRnLZV-18" vertex="1">
          <mxGeometry x="30" width="180" height="20" as="geometry" />
        </mxCell>
        <mxCell id="q16Zf56dlGf5BPqRnLZV-21" value="" style="shape=partialRectangle;collapsible=0;dropTarget=0;pointerEvents=0;fillColor=none;top=0;left=0;bottom=0;right=0;points=[[0,0.5],[1,0.5]];portConstraint=eastwest;" parent="q16Zf56dlGf5BPqRnLZV-14" vertex="1">
          <mxGeometry y="80" width="210" height="30" as="geometry" />
        </mxCell>
        <mxCell id="q16Zf56dlGf5BPqRnLZV-22" value="" style="shape=partialRectangle;connectable=0;fillColor=none;top=0;left=0;bottom=0;right=0;editable=1;overflow=hidden;" parent="q16Zf56dlGf5BPqRnLZV-21" vertex="1">
          <mxGeometry width="30" height="30" as="geometry" />
        </mxCell>
        <mxCell id="q16Zf56dlGf5BPqRnLZV-23" value="workout_date" style="shape=partialRectangle;connectable=0;fillColor=none;top=0;left=0;bottom=0;right=0;align=left;spacingLeft=6;overflow=hidden;" parent="q16Zf56dlGf5BPqRnLZV-21" vertex="1">
          <mxGeometry x="30" width="180" height="30" as="geometry" />
        </mxCell>
        <mxCell id="q16Zf56dlGf5BPqRnLZV-24" value="" style="shape=partialRectangle;collapsible=0;dropTarget=0;pointerEvents=0;fillColor=none;top=0;left=0;bottom=0;right=0;points=[[0,0.5],[1,0.5]];portConstraint=eastwest;" parent="q16Zf56dlGf5BPqRnLZV-14" vertex="1">
          <mxGeometry y="110" width="210" height="30" as="geometry" />
        </mxCell>
        <mxCell id="q16Zf56dlGf5BPqRnLZV-25" value="" style="shape=partialRectangle;connectable=0;fillColor=none;top=0;left=0;bottom=0;right=0;editable=1;overflow=hidden;" parent="q16Zf56dlGf5BPqRnLZV-24" vertex="1">
          <mxGeometry width="30" height="30" as="geometry" />
        </mxCell>
        <mxCell id="q16Zf56dlGf5BPqRnLZV-26" value="Row 3" style="shape=partialRectangle;connectable=0;fillColor=none;top=0;left=0;bottom=0;right=0;align=left;spacingLeft=6;overflow=hidden;" parent="q16Zf56dlGf5BPqRnLZV-24" vertex="1">
          <mxGeometry x="30" width="180" height="30" as="geometry" />
        </mxCell>
        <mxCell id="SeCbNaXoQ8edI2SBsPrC-1" value="weight" style="shape=table;startSize=30;container=1;collapsible=1;childLayout=tableLayout;fixedRows=1;rowLines=0;fontStyle=1;align=center;resizeLast=1;" parent="1" vertex="1">
          <mxGeometry x="-210" y="-895" width="210" height="150" as="geometry" />
        </mxCell>
        <mxCell id="SeCbNaXoQ8edI2SBsPrC-2" value="" style="shape=partialRectangle;collapsible=0;dropTarget=0;pointerEvents=0;fillColor=none;top=0;left=0;bottom=1;right=0;points=[[0,0.5],[1,0.5]];portConstraint=eastwest;" parent="SeCbNaXoQ8edI2SBsPrC-1" vertex="1">
          <mxGeometry y="30" width="210" height="30" as="geometry" />
        </mxCell>
        <mxCell id="SeCbNaXoQ8edI2SBsPrC-3" value="PK" style="shape=partialRectangle;connectable=0;fillColor=none;top=0;left=0;bottom=0;right=0;fontStyle=1;overflow=hidden;" parent="SeCbNaXoQ8edI2SBsPrC-2" vertex="1">
          <mxGeometry width="30" height="30" as="geometry" />
        </mxCell>
        <mxCell id="SeCbNaXoQ8edI2SBsPrC-4" value="record_id" style="shape=partialRectangle;connectable=0;fillColor=none;top=0;left=0;bottom=0;right=0;align=left;spacingLeft=6;fontStyle=0;overflow=hidden;" parent="SeCbNaXoQ8edI2SBsPrC-2" vertex="1">
          <mxGeometry x="30" width="180" height="30" as="geometry" />
        </mxCell>
        <mxCell id="SeCbNaXoQ8edI2SBsPrC-5" value="" style="shape=partialRectangle;collapsible=0;dropTarget=0;pointerEvents=0;fillColor=none;top=0;left=0;bottom=0;right=0;points=[[0,0.5],[1,0.5]];portConstraint=eastwest;" parent="SeCbNaXoQ8edI2SBsPrC-1" vertex="1">
          <mxGeometry y="60" width="210" height="20" as="geometry" />
        </mxCell>
        <mxCell id="SeCbNaXoQ8edI2SBsPrC-6" value="" style="shape=partialRectangle;connectable=0;fillColor=none;top=0;left=0;bottom=0;right=0;editable=1;overflow=hidden;" parent="SeCbNaXoQ8edI2SBsPrC-5" vertex="1">
          <mxGeometry width="30" height="20" as="geometry" />
        </mxCell>
        <mxCell id="SeCbNaXoQ8edI2SBsPrC-7" value="weight_date" style="shape=partialRectangle;connectable=0;fillColor=none;top=0;left=0;bottom=0;right=0;align=left;spacingLeft=6;overflow=hidden;" parent="SeCbNaXoQ8edI2SBsPrC-5" vertex="1">
          <mxGeometry x="30" width="180" height="20" as="geometry" />
        </mxCell>
        <mxCell id="SeCbNaXoQ8edI2SBsPrC-8" value="" style="shape=partialRectangle;collapsible=0;dropTarget=0;pointerEvents=0;fillColor=none;top=0;left=0;bottom=0;right=0;points=[[0,0.5],[1,0.5]];portConstraint=eastwest;" parent="SeCbNaXoQ8edI2SBsPrC-1" vertex="1">
          <mxGeometry y="80" width="210" height="30" as="geometry" />
        </mxCell>
        <mxCell id="SeCbNaXoQ8edI2SBsPrC-9" value="" style="shape=partialRectangle;connectable=0;fillColor=none;top=0;left=0;bottom=0;right=0;editable=1;overflow=hidden;" parent="SeCbNaXoQ8edI2SBsPrC-8" vertex="1">
          <mxGeometry width="30" height="30" as="geometry" />
        </mxCell>
        <mxCell id="SeCbNaXoQ8edI2SBsPrC-10" value="weight_amt" style="shape=partialRectangle;connectable=0;fillColor=none;top=0;left=0;bottom=0;right=0;align=left;spacingLeft=6;overflow=hidden;" parent="SeCbNaXoQ8edI2SBsPrC-8" vertex="1">
          <mxGeometry x="30" width="180" height="30" as="geometry" />
        </mxCell>
        <mxCell id="SeCbNaXoQ8edI2SBsPrC-11" value="" style="shape=partialRectangle;collapsible=0;dropTarget=0;pointerEvents=0;fillColor=none;top=0;left=0;bottom=0;right=0;points=[[0,0.5],[1,0.5]];portConstraint=eastwest;" parent="SeCbNaXoQ8edI2SBsPrC-1" vertex="1">
          <mxGeometry y="110" width="210" height="30" as="geometry" />
        </mxCell>
        <mxCell id="SeCbNaXoQ8edI2SBsPrC-12" value="" style="shape=partialRectangle;connectable=0;fillColor=none;top=0;left=0;bottom=0;right=0;editable=1;overflow=hidden;" parent="SeCbNaXoQ8edI2SBsPrC-11" vertex="1">
          <mxGeometry width="30" height="30" as="geometry" />
        </mxCell>
        <mxCell id="SeCbNaXoQ8edI2SBsPrC-13" value="Row 3" style="shape=partialRectangle;connectable=0;fillColor=none;top=0;left=0;bottom=0;right=0;align=left;spacingLeft=6;overflow=hidden;" parent="SeCbNaXoQ8edI2SBsPrC-11" vertex="1">
          <mxGeometry x="30" width="180" height="30" as="geometry" />
        </mxCell>
        <mxCell id="q16Zf56dlGf5BPqRnLZV-3" value="&lt;b&gt;Weather&lt;br&gt;&lt;/b&gt;&lt;br&gt;Data to Gather:&lt;br&gt;&lt;ul&gt;&lt;li&gt;Current Temperature&lt;/li&gt;&lt;li&gt;Current Weather&lt;/li&gt;&lt;li&gt;Wind Speed and Direction&lt;/li&gt;&lt;li&gt;Forecast&lt;/li&gt;&lt;/ul&gt;&lt;div&gt;Categories of Information:&lt;/div&gt;&lt;div&gt;&lt;ul&gt;&lt;li&gt;Weather, environment&lt;/li&gt;&lt;/ul&gt;&lt;div&gt;Services to Research&lt;/div&gt;&lt;/div&gt;&lt;div&gt;&lt;ul&gt;&lt;li&gt;OpenWeather API&lt;/li&gt;&lt;/ul&gt;&lt;/div&gt;" style="rounded=0;whiteSpace=wrap;html=1;align=left;" parent="1" vertex="1">
          <mxGeometry x="-2480" y="630" width="200" height="358" as="geometry" />
        </mxCell>
        <mxCell id="SeCbNaXoQ8edI2SBsPrC-14" value="calories" style="shape=table;startSize=30;container=1;collapsible=1;childLayout=tableLayout;fixedRows=1;rowLines=0;fontStyle=1;align=center;resizeLast=1;" parent="1" vertex="1">
          <mxGeometry x="-480" y="-715" width="210" height="150" as="geometry" />
        </mxCell>
        <mxCell id="SeCbNaXoQ8edI2SBsPrC-15" value="" style="shape=partialRectangle;collapsible=0;dropTarget=0;pointerEvents=0;fillColor=none;top=0;left=0;bottom=1;right=0;points=[[0,0.5],[1,0.5]];portConstraint=eastwest;" parent="SeCbNaXoQ8edI2SBsPrC-14" vertex="1">
          <mxGeometry y="30" width="210" height="30" as="geometry" />
        </mxCell>
        <mxCell id="SeCbNaXoQ8edI2SBsPrC-16" value="PK" style="shape=partialRectangle;connectable=0;fillColor=none;top=0;left=0;bottom=0;right=0;fontStyle=1;overflow=hidden;" parent="SeCbNaXoQ8edI2SBsPrC-15" vertex="1">
          <mxGeometry width="30" height="30" as="geometry" />
        </mxCell>
        <mxCell id="SeCbNaXoQ8edI2SBsPrC-17" value="record_id" style="shape=partialRectangle;connectable=0;fillColor=none;top=0;left=0;bottom=0;right=0;align=left;spacingLeft=6;fontStyle=0;overflow=hidden;" parent="SeCbNaXoQ8edI2SBsPrC-15" vertex="1">
          <mxGeometry x="30" width="180" height="30" as="geometry" />
        </mxCell>
        <mxCell id="SeCbNaXoQ8edI2SBsPrC-18" value="" style="shape=partialRectangle;collapsible=0;dropTarget=0;pointerEvents=0;fillColor=none;top=0;left=0;bottom=0;right=0;points=[[0,0.5],[1,0.5]];portConstraint=eastwest;" parent="SeCbNaXoQ8edI2SBsPrC-14" vertex="1">
          <mxGeometry y="60" width="210" height="20" as="geometry" />
        </mxCell>
        <mxCell id="SeCbNaXoQ8edI2SBsPrC-19" value="" style="shape=partialRectangle;connectable=0;fillColor=none;top=0;left=0;bottom=0;right=0;editable=1;overflow=hidden;" parent="SeCbNaXoQ8edI2SBsPrC-18" vertex="1">
          <mxGeometry width="30" height="20" as="geometry" />
        </mxCell>
        <mxCell id="SeCbNaXoQ8edI2SBsPrC-20" value="weight_date" style="shape=partialRectangle;connectable=0;fillColor=none;top=0;left=0;bottom=0;right=0;align=left;spacingLeft=6;overflow=hidden;" parent="SeCbNaXoQ8edI2SBsPrC-18" vertex="1">
          <mxGeometry x="30" width="180" height="20" as="geometry" />
        </mxCell>
        <mxCell id="SeCbNaXoQ8edI2SBsPrC-21" value="" style="shape=partialRectangle;collapsible=0;dropTarget=0;pointerEvents=0;fillColor=none;top=0;left=0;bottom=0;right=0;points=[[0,0.5],[1,0.5]];portConstraint=eastwest;" parent="SeCbNaXoQ8edI2SBsPrC-14" vertex="1">
          <mxGeometry y="80" width="210" height="30" as="geometry" />
        </mxCell>
        <mxCell id="SeCbNaXoQ8edI2SBsPrC-22" value="" style="shape=partialRectangle;connectable=0;fillColor=none;top=0;left=0;bottom=0;right=0;editable=1;overflow=hidden;" parent="SeCbNaXoQ8edI2SBsPrC-21" vertex="1">
          <mxGeometry width="30" height="30" as="geometry" />
        </mxCell>
        <mxCell id="SeCbNaXoQ8edI2SBsPrC-23" value="weight_amt" style="shape=partialRectangle;connectable=0;fillColor=none;top=0;left=0;bottom=0;right=0;align=left;spacingLeft=6;overflow=hidden;" parent="SeCbNaXoQ8edI2SBsPrC-21" vertex="1">
          <mxGeometry x="30" width="180" height="30" as="geometry" />
        </mxCell>
        <mxCell id="SeCbNaXoQ8edI2SBsPrC-24" value="" style="shape=partialRectangle;collapsible=0;dropTarget=0;pointerEvents=0;fillColor=none;top=0;left=0;bottom=0;right=0;points=[[0,0.5],[1,0.5]];portConstraint=eastwest;" parent="SeCbNaXoQ8edI2SBsPrC-14" vertex="1">
          <mxGeometry y="110" width="210" height="30" as="geometry" />
        </mxCell>
        <mxCell id="SeCbNaXoQ8edI2SBsPrC-25" value="" style="shape=partialRectangle;connectable=0;fillColor=none;top=0;left=0;bottom=0;right=0;editable=1;overflow=hidden;" parent="SeCbNaXoQ8edI2SBsPrC-24" vertex="1">
          <mxGeometry width="30" height="30" as="geometry" />
        </mxCell>
        <mxCell id="SeCbNaXoQ8edI2SBsPrC-26" value="Row 3" style="shape=partialRectangle;connectable=0;fillColor=none;top=0;left=0;bottom=0;right=0;align=left;spacingLeft=6;overflow=hidden;" parent="SeCbNaXoQ8edI2SBsPrC-24" vertex="1">
          <mxGeometry x="30" width="180" height="30" as="geometry" />
        </mxCell>
        <mxCell id="q16Zf56dlGf5BPqRnLZV-4" value="&lt;b&gt;Vehicle Details&lt;br&gt;&lt;/b&gt;&lt;br&gt;Data to Gather:&lt;br&gt;&lt;ul&gt;&lt;li&gt;Total Miles&lt;/li&gt;&lt;li&gt;Fault Codes&lt;/li&gt;&lt;li&gt;&lt;br&gt;&lt;/li&gt;&lt;/ul&gt;&lt;div&gt;Categories of Information:&lt;/div&gt;&lt;div&gt;&lt;ul&gt;&lt;li&gt;Automobile Status&lt;/li&gt;&lt;/ul&gt;&lt;div&gt;Services to Research&lt;/div&gt;&lt;/div&gt;&lt;div&gt;&lt;ul&gt;&lt;li&gt;&lt;br&gt;&lt;/li&gt;&lt;/ul&gt;&lt;/div&gt;" style="rounded=0;whiteSpace=wrap;html=1;align=left;" parent="1" vertex="1">
          <mxGeometry x="-2480" y="1030" width="200" height="358" as="geometry" />
        </mxCell>
        <mxCell id="q16Zf56dlGf5BPqRnLZV-5" value="&lt;font&gt;&lt;b&gt;&lt;font style=&quot;font-size: 14px&quot;&gt;Server Status&lt;/font&gt;&lt;/b&gt;&lt;br&gt;&lt;br&gt;Data to Gather:&lt;br&gt;&lt;ul style=&quot;font-size: 12px&quot;&gt;&lt;li&gt;Core Temp&lt;/li&gt;&lt;li&gt;Case Temp&lt;/li&gt;&lt;li&gt;CPU Load&lt;/li&gt;&lt;li&gt;Ram Load&lt;/li&gt;&lt;li&gt;Storage Usage&lt;/li&gt;&lt;li&gt;Last Backup&lt;/li&gt;&lt;/ul&gt;Categories&lt;span style=&quot;font-size: 12px&quot;&gt;&amp;nbsp;of Information&lt;/span&gt;&lt;br&gt;&lt;div style=&quot;font-size: 12px&quot;&gt;&lt;ul&gt;&lt;li&gt;&lt;font style=&quot;font-size: 12px&quot;&gt;&lt;div&gt;System Status&lt;/div&gt;&lt;/font&gt;&lt;/li&gt;&lt;/ul&gt;&lt;div&gt;Services to Research:&lt;/div&gt;&lt;/div&gt;&lt;div style=&quot;font-size: 12px&quot;&gt;&lt;ul&gt;&lt;li&gt;&lt;font style=&quot;font-size: 12px&quot;&gt;Ubuntu&lt;/font&gt;&lt;/li&gt;&lt;/ul&gt;&lt;/div&gt;&lt;/font&gt;" style="rounded=0;whiteSpace=wrap;html=1;align=left;verticalAlign=top;" parent="1" vertex="1">
          <mxGeometry x="-2520" y="-600" width="200" height="280" as="geometry" />
        </mxCell>
        <mxCell id="q16Zf56dlGf5BPqRnLZV-6" value="&lt;font&gt;&lt;b&gt;&lt;font style=&quot;font-size: 14px&quot;&gt;Raspberry Pi Device Status&lt;/font&gt;&lt;/b&gt;&lt;br&gt;&lt;br&gt;Data to Gather:&lt;br&gt;&lt;ul style=&quot;font-size: 12px&quot;&gt;&lt;li&gt;Core Temp&lt;/li&gt;&lt;li&gt;CPU Load&lt;/li&gt;&lt;li&gt;Online Status&lt;/li&gt;&lt;li&gt;Battery Usage (if applicable)&lt;/li&gt;&lt;li&gt;Last Backup&lt;/li&gt;&lt;/ul&gt;Categories&lt;span style=&quot;font-size: 12px&quot;&gt;&amp;nbsp;of Information&lt;/span&gt;&lt;br&gt;&lt;div style=&quot;font-size: 12px&quot;&gt;&lt;ul&gt;&lt;li&gt;&lt;font style=&quot;font-size: 12px&quot;&gt;Device Status&lt;/font&gt;&lt;/li&gt;&lt;/ul&gt;&lt;div&gt;Services to Research:&lt;/div&gt;&lt;/div&gt;&lt;div style=&quot;font-size: 12px&quot;&gt;&lt;ul&gt;&lt;li&gt;&lt;font style=&quot;font-size: 12px&quot;&gt;Raspbian OS&lt;/font&gt;&lt;/li&gt;&lt;/ul&gt;&lt;/div&gt;&lt;/font&gt;" style="rounded=0;whiteSpace=wrap;html=1;align=left;verticalAlign=top;" parent="1" vertex="1">
          <mxGeometry x="-2280" y="-600" width="200" height="280" as="geometry" />
        </mxCell>
        <mxCell id="q16Zf56dlGf5BPqRnLZV-7" value="&lt;font style=&quot;font-size: 12px&quot;&gt;&lt;b&gt;Router Device Status&lt;/b&gt;&lt;br&gt;&lt;br&gt;Data to Gather:&lt;br&gt;&lt;ul&gt;&lt;li&gt;Bandwidth Usage&lt;/li&gt;&lt;li&gt;Requests&lt;/li&gt;&lt;li&gt;Online Status&lt;/li&gt;&lt;/ul&gt;Categories&lt;span&gt;&amp;nbsp;of Information&lt;/span&gt;&lt;br&gt;&lt;div&gt;&lt;ul&gt;&lt;li&gt;&lt;font style=&quot;font-size: 12px&quot;&gt;Device Status, internet usage&lt;/font&gt;&lt;/li&gt;&lt;/ul&gt;&lt;div&gt;Services to Research:&lt;/div&gt;&lt;/div&gt;&lt;div&gt;&lt;ul&gt;&lt;li&gt;&lt;font style=&quot;font-size: 12px&quot;&gt;Linksys&lt;/font&gt;&lt;/li&gt;&lt;/ul&gt;&lt;/div&gt;&lt;/font&gt;" style="rounded=0;whiteSpace=wrap;html=1;align=left;verticalAlign=top;" parent="1" vertex="1">
          <mxGeometry x="-2040" y="-600" width="200" height="280" as="geometry" />
        </mxCell>
        <mxCell id="q16Zf56dlGf5BPqRnLZV-8" value="&lt;font style=&quot;font-size: 12px&quot;&gt;&lt;b&gt;Xfinity Status&lt;/b&gt;&lt;br&gt;&lt;br&gt;Data to Gather:&lt;br&gt;&lt;ul&gt;&lt;li&gt;Data Usage&lt;/li&gt;&lt;li&gt;Online Status&lt;/li&gt;&lt;/ul&gt;Categories&lt;span&gt;&amp;nbsp;of Information&lt;/span&gt;&lt;br&gt;&lt;div&gt;&lt;ul&gt;&lt;li&gt;&lt;font style=&quot;font-size: 12px&quot;&gt;Internet usage&lt;/font&gt;&lt;/li&gt;&lt;/ul&gt;&lt;div&gt;Services to Research:&lt;/div&gt;&lt;/div&gt;&lt;div&gt;&lt;ul&gt;&lt;li&gt;&lt;font style=&quot;font-size: 12px&quot;&gt;Xfinity&lt;/font&gt;&lt;/li&gt;&lt;/ul&gt;&lt;/div&gt;&lt;/font&gt;" style="rounded=0;whiteSpace=wrap;html=1;align=left;verticalAlign=top;" parent="1" vertex="1">
          <mxGeometry x="-2520" y="-160" width="200" height="280" as="geometry" />
        </mxCell>
        <mxCell id="q16Zf56dlGf5BPqRnLZV-9" value="&lt;span style=&quot;font-size: 14px&quot;&gt;&lt;b&gt;MyFitnessPal&lt;br&gt;&lt;/b&gt;&lt;/span&gt;&lt;br&gt;Data to Gather:&lt;br&gt;&lt;ul&gt;&lt;li&gt;Food Diary&lt;/li&gt;&lt;li&gt;Calories Eaten&lt;/li&gt;&lt;li&gt;Water Consumed&lt;/li&gt;&lt;li&gt;&lt;br&gt;&lt;/li&gt;&lt;/ul&gt;&lt;div&gt;Categories of Information&lt;/div&gt;&lt;div&gt;&lt;ul&gt;&lt;li&gt;Health, Diet Factors, Exercise Factors, Status&lt;/li&gt;&lt;/ul&gt;&lt;div&gt;Services to Research:&lt;/div&gt;&lt;/div&gt;&lt;div&gt;&lt;ul&gt;&lt;li&gt;Fitbit, MyFitnessPal&lt;/li&gt;&lt;/ul&gt;&lt;/div&gt;" style="rounded=0;whiteSpace=wrap;html=1;align=left;verticalAlign=top;" parent="1" vertex="1">
          <mxGeometry x="-2040" y="-1040" width="200" height="280" as="geometry" />
        </mxCell>
        <mxCell id="q16Zf56dlGf5BPqRnLZV-10" value="&lt;span style=&quot;font-size: 14px&quot;&gt;&lt;b&gt;MyFitnessPal&lt;br&gt;&lt;/b&gt;&lt;/span&gt;&lt;br&gt;Data to Gather:&lt;br&gt;&lt;ul&gt;&lt;li&gt;Food Diary&lt;/li&gt;&lt;li&gt;Calories Eaten&lt;/li&gt;&lt;li&gt;Water Consumed&lt;/li&gt;&lt;li&gt;Exercise Completed&lt;/li&gt;&lt;/ul&gt;&lt;div&gt;Categories of Information&lt;/div&gt;&lt;div&gt;&lt;ul&gt;&lt;li&gt;Health, Diet Factors, Exercise Factors&lt;/li&gt;&lt;/ul&gt;&lt;div&gt;Services to Research:&lt;/div&gt;&lt;/div&gt;&lt;div&gt;&lt;ul&gt;&lt;li&gt;MyFitnessPal&lt;/li&gt;&lt;/ul&gt;&lt;/div&gt;" style="rounded=0;whiteSpace=wrap;html=1;align=left;verticalAlign=top;" parent="1" vertex="1">
          <mxGeometry x="-1560" y="-1040" width="200" height="280" as="geometry" />
        </mxCell>
        <mxCell id="q16Zf56dlGf5BPqRnLZV-11" value="&lt;span style=&quot;font-size: 14px&quot;&gt;&lt;b&gt;JEFit&lt;br&gt;&lt;/b&gt;&lt;/span&gt;&lt;br&gt;Data to Gather:&lt;br&gt;&lt;ul&gt;&lt;li&gt;Workout Routines&lt;/li&gt;&lt;li&gt;Muscles Worked&lt;/li&gt;&lt;li&gt;Weight Lifted&lt;/li&gt;&lt;li&gt;PR&#39;s&lt;/li&gt;&lt;li&gt;&lt;br&gt;&lt;/li&gt;&lt;/ul&gt;&lt;div&gt;Categories of Information&lt;/div&gt;&lt;div&gt;&lt;ul&gt;&lt;li&gt;Health, Diet Factors, Exercise Factors&lt;/li&gt;&lt;/ul&gt;&lt;div&gt;Services to Research:&lt;/div&gt;&lt;/div&gt;&lt;div&gt;&lt;ul&gt;&lt;li&gt;MyFitnessPal&lt;/li&gt;&lt;/ul&gt;&lt;/div&gt;" style="rounded=0;whiteSpace=wrap;html=1;align=left;verticalAlign=top;" parent="1" vertex="1">
          <mxGeometry x="-1800" y="-1040" width="200" height="280" as="geometry" />
        </mxCell>
        <mxCell id="q16Zf56dlGf5BPqRnLZV-27" value="&lt;br&gt;workout_id: num(),&lt;br&gt;workout_date : datetime,&lt;br&gt;workout_location: gps,&lt;br&gt;weight_begin: 250,&lt;br&gt;weight_begin_id: record_id,&lt;br&gt;weight_end: 250,&lt;br&gt;weight_end_id: record_id,&lt;br&gt;calories_burned_est: 1200,&lt;br&gt;exercises: [&lt;br&gt;&lt;blockquote style=&quot;margin: 0 0 0 40px ; border: none ; padding: 0px&quot;&gt;exercise 1: {&lt;/blockquote&gt;&lt;blockquote style=&quot;margin: 0 0 0 40px ; border: none ; padding: 0px&quot;&gt;&lt;blockquote style=&quot;margin: 0 0 0 40px ; border: none ; padding: 0px&quot;&gt;exercise_name : &quot;legpress&quot;,&lt;/blockquote&gt;&lt;blockquote style=&quot;margin: 0 0 0 40px ; border: none ; padding: 0px&quot;&gt;exercise_id: 1245,&lt;/blockquote&gt;&lt;blockquote style=&quot;margin: 0 0 0 40px ; border: none ; padding: 0px&quot;&gt;sets : [&lt;/blockquote&gt;&lt;/blockquote&gt;&lt;blockquote style=&quot;margin: 0 0 0 40px ; border: none ; padding: 0px&quot;&gt;&lt;blockquote style=&quot;margin: 0 0 0 40px ; border: none ; padding: 0px&quot;&gt;&lt;blockquote style=&quot;margin: 0 0 0 40px ; border: none ; padding: 0px&quot;&gt;1: {&lt;/blockquote&gt;&lt;blockquote style=&quot;margin: 0 0 0 40px ; border: none ; padding: 0px&quot;&gt;weight : 250,&lt;/blockquote&gt;&lt;blockquote style=&quot;margin: 0 0 0 40px ; border: none ; padding: 0px&quot;&gt;unit : &quot;lbs&quot;,&lt;/blockquote&gt;&lt;blockquote style=&quot;margin: 0 0 0 40px ; border: none ; padding: 0px&quot;&gt;reps : 8&lt;/blockquote&gt;&lt;blockquote style=&quot;margin: 0 0 0 40px ; border: none ; padding: 0px&quot;&gt;}&lt;/blockquote&gt;&lt;/blockquote&gt;&lt;/blockquote&gt;&lt;blockquote style=&quot;margin: 0 0 0 40px ; border: none ; padding: 0px&quot;&gt;&lt;blockquote style=&quot;margin: 0 0 0 40px ; border: none ; padding: 0px&quot;&gt;]&lt;/blockquote&gt;&lt;/blockquote&gt;&lt;blockquote style=&quot;margin: 0 0 0 40px ; border: none ; padding: 0px&quot;&gt;&lt;blockquote style=&quot;margin: 0 0 0 40px ; border: none ; padding: 0px&quot;&gt;&lt;br&gt;&lt;/blockquote&gt;&lt;/blockquote&gt;&lt;blockquote style=&quot;margin: 0 0 0 40px ; border: none ; padding: 0px&quot;&gt;}&lt;/blockquote&gt;&lt;blockquote style=&quot;margin: 0 0 0 40px ; border: none ; padding: 0px&quot;&gt;&lt;blockquote style=&quot;margin: 0 0 0 40px ; border: none ; padding: 0px&quot;&gt;&lt;/blockquote&gt;&lt;/blockquote&gt;&lt;blockquote style=&quot;margin: 0 0 0 40px ; border: none ; padding: 0px&quot;&gt;&lt;blockquote style=&quot;margin: 0 0 0 40px ; border: none ; padding: 0px&quot;&gt;&lt;/blockquote&gt;&lt;/blockquote&gt;]" style="whiteSpace=wrap;html=1;shape=mxgraph.basic.document;align=left;" parent="1" vertex="1">
          <mxGeometry x="910" y="-970" width="240" height="350" as="geometry" />
        </mxCell>
        <mxCell id="q16Zf56dlGf5BPqRnLZV-32" value="&lt;font style=&quot;font-size: 39px&quot;&gt;&lt;b&gt;Exercise Document Database&lt;/b&gt;&lt;/font&gt;" style="text;html=1;strokeColor=none;fillColor=none;align=center;verticalAlign=middle;whiteSpace=wrap;rounded=0;" parent="1" vertex="1">
          <mxGeometry x="880" y="-1060" width="620" height="50" as="geometry" />
        </mxCell>
        <mxCell id="q16Zf56dlGf5BPqRnLZV-33" value="record_date : datetime,&lt;br&gt;record_location: gps,&lt;br&gt;record_old: 250,&lt;br&gt;record_new: 255,&lt;br&gt;exercise_name: &quot;bench press&quot;&lt;br&gt;exercise_id: 1245&lt;br&gt;" style="whiteSpace=wrap;html=1;shape=mxgraph.basic.document;align=left;" parent="1" vertex="1">
          <mxGeometry x="1250" y="-970" width="240" height="130" as="geometry" />
        </mxCell>
        <mxCell id="q16Zf56dlGf5BPqRnLZV-34" value="workout {}" style="text;html=1;strokeColor=none;fillColor=none;align=center;verticalAlign=middle;whiteSpace=wrap;rounded=0;" parent="1" vertex="1">
          <mxGeometry x="995" y="-970" width="70" height="20" as="geometry" />
        </mxCell>
        <mxCell id="q16Zf56dlGf5BPqRnLZV-29" value="personal_record {}" style="text;html=1;strokeColor=none;fillColor=none;align=center;verticalAlign=middle;whiteSpace=wrap;rounded=0;" parent="1" vertex="1">
          <mxGeometry x="1317.5" y="-970" width="105" height="20" as="geometry" />
        </mxCell>
        <mxCell id="q16Zf56dlGf5BPqRnLZV-36" value="exercise_name: &quot;bench press&quot;,&lt;br&gt;exercise_id: 1245,&lt;br&gt;muscles_worked: [&lt;br&gt;&lt;blockquote style=&quot;margin: 0 0 0 40px ; border: none ; padding: 0px&quot;&gt;biceps, triceps, pectoralis major&lt;/blockquote&gt;]" style="whiteSpace=wrap;html=1;shape=mxgraph.basic.document;align=left;" parent="1" vertex="1">
          <mxGeometry x="910" y="-570" width="240" height="110" as="geometry" />
        </mxCell>
        <mxCell id="q16Zf56dlGf5BPqRnLZV-37" value="&lt;font style=&quot;font-size: 16px&quot;&gt;workouts []&lt;/font&gt;" style="text;html=1;strokeColor=none;fillColor=none;align=center;verticalAlign=middle;whiteSpace=wrap;rounded=0;" parent="1" vertex="1">
          <mxGeometry x="982.5" y="-1000" width="95" height="20" as="geometry" />
        </mxCell>
        <mxCell id="q16Zf56dlGf5BPqRnLZV-38" value="&lt;font style=&quot;font-size: 16px&quot;&gt;personal_records []&lt;/font&gt;" style="text;html=1;strokeColor=none;fillColor=none;align=center;verticalAlign=middle;whiteSpace=wrap;rounded=0;" parent="1" vertex="1">
          <mxGeometry x="1300" y="-1000" width="155" height="20" as="geometry" />
        </mxCell>
        <mxCell id="q16Zf56dlGf5BPqRnLZV-39" value="&lt;font style=&quot;font-size: 16px&quot;&gt;Exercises []&lt;/font&gt;" style="text;html=1;strokeColor=none;fillColor=none;align=center;verticalAlign=middle;whiteSpace=wrap;rounded=0;" parent="1" vertex="1">
          <mxGeometry x="982.5" y="-600" width="95" height="20" as="geometry" />
        </mxCell>
        <mxCell id="q16Zf56dlGf5BPqRnLZV-40" value="exercise {}" style="text;html=1;strokeColor=none;fillColor=none;align=center;verticalAlign=middle;whiteSpace=wrap;rounded=0;" parent="1" vertex="1">
          <mxGeometry x="995" y="-570" width="70" height="20" as="geometry" />
        </mxCell>
        <mxCell id="q16Zf56dlGf5BPqRnLZV-41" value="muscle_name: &quot;bench press&quot;,&lt;br&gt;muscle_id: 1245,&lt;br&gt;geometry: {},&lt;br&gt;frontend_objid : &quot;&quot;" style="whiteSpace=wrap;html=1;shape=mxgraph.basic.document;align=left;" parent="1" vertex="1">
          <mxGeometry x="1250" y="-750" width="240" height="100" as="geometry" />
        </mxCell>
        <mxCell id="q16Zf56dlGf5BPqRnLZV-42" value="&lt;font style=&quot;font-size: 16px&quot;&gt;Muscles []&lt;/font&gt;" style="text;html=1;strokeColor=none;fillColor=none;align=center;verticalAlign=middle;whiteSpace=wrap;rounded=0;" parent="1" vertex="1">
          <mxGeometry x="1322.5" y="-780" width="95" height="20" as="geometry" />
        </mxCell>
        <mxCell id="q16Zf56dlGf5BPqRnLZV-43" value="muscle {}" style="text;html=1;strokeColor=none;fillColor=none;align=center;verticalAlign=middle;whiteSpace=wrap;rounded=0;" parent="1" vertex="1">
          <mxGeometry x="1335" y="-750" width="70" height="20" as="geometry" />
        </mxCell>
        <mxCell id="q16Zf56dlGf5BPqRnLZV-44" value="measurement_area: &quot;upper_arm&quot;,&lt;br&gt;measurement_id: 1245,&lt;br&gt;geometry: {},&lt;br&gt;frontend_objid : &quot;&quot;" style="whiteSpace=wrap;html=1;shape=mxgraph.basic.document;align=left;" parent="1" vertex="1">
          <mxGeometry x="1250" y="-590" width="240" height="100" as="geometry" />
        </mxCell>
        <mxCell id="q16Zf56dlGf5BPqRnLZV-45" value="&lt;font style=&quot;font-size: 16px&quot;&gt;Measurements []&lt;/font&gt;" style="text;html=1;strokeColor=none;fillColor=none;align=center;verticalAlign=middle;whiteSpace=wrap;rounded=0;" parent="1" vertex="1">
          <mxGeometry x="1306.25" y="-620" width="127.5" height="20" as="geometry" />
        </mxCell>
        <mxCell id="q16Zf56dlGf5BPqRnLZV-46" value="measurement {}" style="text;html=1;strokeColor=none;fillColor=none;align=center;verticalAlign=middle;whiteSpace=wrap;rounded=0;" parent="1" vertex="1">
          <mxGeometry x="1322.5" y="-590" width="95" height="20" as="geometry" />
        </mxCell>
        <mxCell id="zvpm1Ig5fIjkgvGZyFtu-1" value="&lt;br&gt;&lt;br&gt;db.createCollection(&quot;personal_records&quot;, {&lt;br&gt;&amp;nbsp; &amp;nbsp; validator: {&lt;br&gt;&amp;nbsp; &amp;nbsp; &amp;nbsp; &amp;nbsp; $jsonSchema: {&lt;br&gt;&amp;nbsp; &amp;nbsp; &amp;nbsp; &amp;nbsp; &amp;nbsp; &amp;nbsp; bsonType: &quot;object&quot;,&lt;br&gt;&amp;nbsp; &amp;nbsp; &amp;nbsp; &amp;nbsp; &amp;nbsp; &amp;nbsp; required: [&quot;record_date&quot;, &quot;record_old&quot;, &quot;record_new&quot;],&lt;br&gt;&amp;nbsp; &amp;nbsp; &amp;nbsp; &amp;nbsp; &amp;nbsp; &amp;nbsp; properties: {&lt;br&gt;&amp;nbsp; &amp;nbsp; &amp;nbsp; &amp;nbsp; &amp;nbsp; &amp;nbsp; &amp;nbsp; &amp;nbsp; record_date: {&lt;br&gt;&amp;nbsp; &amp;nbsp; &amp;nbsp; &amp;nbsp; &amp;nbsp; &amp;nbsp; &amp;nbsp; &amp;nbsp; &amp;nbsp; &amp;nbsp; bsonType: &quot;date&quot;,&lt;br&gt;&amp;nbsp; &amp;nbsp; &amp;nbsp; &amp;nbsp; &amp;nbsp; &amp;nbsp; &amp;nbsp; &amp;nbsp; &amp;nbsp; &amp;nbsp; minimum: ,&lt;br&gt;&amp;nbsp; &amp;nbsp; &amp;nbsp; &amp;nbsp; &amp;nbsp; &amp;nbsp; &amp;nbsp; &amp;nbsp; },&lt;br&gt;&amp;nbsp; &amp;nbsp; &amp;nbsp; &amp;nbsp; &amp;nbsp; &amp;nbsp; &amp;nbsp; &amp;nbsp; record_old: {&lt;br&gt;&amp;nbsp; &amp;nbsp; &amp;nbsp; &amp;nbsp; &amp;nbsp; &amp;nbsp; &amp;nbsp; &amp;nbsp; &amp;nbsp; &amp;nbsp; bsonType: &quot;double&quot;,&lt;br&gt;&amp;nbsp; &amp;nbsp; &amp;nbsp; &amp;nbsp; &amp;nbsp; &amp;nbsp; &amp;nbsp; &amp;nbsp; &amp;nbsp; &amp;nbsp; description: &quot;The previous PR record&quot;&lt;br&gt;&amp;nbsp; &amp;nbsp; &amp;nbsp; &amp;nbsp; &amp;nbsp; &amp;nbsp; &amp;nbsp; &amp;nbsp; },&lt;br&gt;&amp;nbsp; &amp;nbsp; &amp;nbsp; &amp;nbsp; &amp;nbsp; &amp;nbsp; &amp;nbsp; &amp;nbsp; record_new: {&lt;br&gt;&amp;nbsp; &amp;nbsp; &amp;nbsp; &amp;nbsp; &amp;nbsp; &amp;nbsp; &amp;nbsp; &amp;nbsp; &amp;nbsp; &amp;nbsp; bsonType: &quot;double&quot;,&lt;br&gt;&amp;nbsp; &amp;nbsp; &amp;nbsp; &amp;nbsp; &amp;nbsp; &amp;nbsp; &amp;nbsp; &amp;nbsp; &amp;nbsp; &amp;nbsp; description: &quot;The previous PR record&quot;&lt;br&gt;&amp;nbsp; &amp;nbsp; &amp;nbsp; &amp;nbsp; &amp;nbsp; &amp;nbsp; &amp;nbsp; &amp;nbsp; },&lt;br&gt;&amp;nbsp; &amp;nbsp; &amp;nbsp; &amp;nbsp; &amp;nbsp; &amp;nbsp; }&lt;br&gt;&amp;nbsp; &amp;nbsp; &amp;nbsp; &amp;nbsp; }&lt;br&gt;&amp;nbsp; &amp;nbsp; }&lt;br&gt;})" style="whiteSpace=wrap;html=1;shape=mxgraph.basic.document;align=left;" parent="1" vertex="1">
          <mxGeometry x="1560" y="-970" width="350" height="350" as="geometry" />
        </mxCell>
        <mxCell id="zvpm1Ig5fIjkgvGZyFtu-2" value="personal_record_val {}" style="text;html=1;strokeColor=none;fillColor=none;align=center;verticalAlign=middle;whiteSpace=wrap;rounded=0;" parent="1" vertex="1">
          <mxGeometry x="1617.5" y="-970" width="125" height="20" as="geometry" />
        </mxCell>
        <mxCell id="a-PpkgbKHKiEm6CQ7iPh-1" value="&lt;font style=&quot;font-size: 24px&quot;&gt;Health Based Devices and Services&lt;/font&gt;" style="text;html=1;strokeColor=none;fillColor=none;align=left;verticalAlign=middle;whiteSpace=wrap;rounded=0;" vertex="1" parent="1">
          <mxGeometry x="-2520" y="-1100" width="390" height="40" as="geometry" />
        </mxCell>
        <mxCell id="a-PpkgbKHKiEm6CQ7iPh-2" value="&lt;span style=&quot;font-size: 24px&quot;&gt;Device and Hardware Status&lt;/span&gt;" style="text;html=1;strokeColor=none;fillColor=none;align=left;verticalAlign=middle;whiteSpace=wrap;rounded=0;" vertex="1" parent="1">
          <mxGeometry x="-2520" y="-660" width="390" height="40" as="geometry" />
        </mxCell>
        <mxCell id="a-PpkgbKHKiEm6CQ7iPh-3" value="&lt;font style=&quot;font-size: 12px&quot;&gt;&lt;b&gt;&lt;font style=&quot;font-size: 14px&quot;&gt;Phone&lt;/font&gt; &lt;font style=&quot;font-size: 14px&quot;&gt;Status&lt;/font&gt;&lt;br&gt;&lt;/b&gt;&lt;br&gt;&lt;span&gt;Data to Gather:&lt;/span&gt;&lt;br&gt;&lt;ul&gt;&lt;li&gt;Battery Status&lt;/li&gt;&lt;li&gt;Data Usage&lt;/li&gt;&lt;/ul&gt;&lt;span&gt;Categories&lt;/span&gt;&lt;span&gt;&amp;nbsp;of Information&lt;/span&gt;&lt;br&gt;&lt;div&gt;&lt;ul&gt;&lt;li&gt;&lt;font style=&quot;font-size: 12px&quot;&gt;Device Status, internet usage&lt;/font&gt;&lt;/li&gt;&lt;/ul&gt;&lt;div&gt;Services to Research:&lt;/div&gt;&lt;/div&gt;&lt;div&gt;&lt;ul&gt;&lt;li&gt;&lt;font style=&quot;font-size: 12px&quot;&gt;Linksys&lt;/font&gt;&lt;/li&gt;&lt;/ul&gt;&lt;/div&gt;&lt;/font&gt;" style="rounded=0;whiteSpace=wrap;html=1;align=left;verticalAlign=top;" vertex="1" parent="1">
          <mxGeometry x="-1800" y="-600" width="200" height="280" as="geometry" />
        </mxCell>
        <mxCell id="a-PpkgbKHKiEm6CQ7iPh-4" value="&lt;font style=&quot;font-size: 12px&quot;&gt;&lt;b&gt;&lt;font style=&quot;font-size: 14px&quot;&gt;Curing Fridge&lt;/font&gt; &lt;font style=&quot;font-size: 14px&quot;&gt;Status&lt;/font&gt;&lt;br&gt;&lt;/b&gt;&lt;br&gt;&lt;span&gt;Data to Gather:&lt;/span&gt;&lt;br&gt;&lt;ul&gt;&lt;li&gt;Humidity&lt;/li&gt;&lt;li&gt;Temperature&lt;/li&gt;&lt;/ul&gt;&lt;span&gt;Categories&lt;/span&gt;&lt;span&gt;&amp;nbsp;of Information&lt;/span&gt;&lt;br&gt;&lt;div&gt;&lt;ul&gt;&lt;li&gt;&lt;font style=&quot;font-size: 12px&quot;&gt;Device Status, internet usage&lt;/font&gt;&lt;/li&gt;&lt;/ul&gt;&lt;div&gt;Services to Research:&lt;/div&gt;&lt;/div&gt;&lt;div&gt;&lt;ul&gt;&lt;li&gt;&lt;font style=&quot;font-size: 12px&quot;&gt;Linksys&lt;/font&gt;&lt;/li&gt;&lt;/ul&gt;&lt;/div&gt;&lt;/font&gt;" style="rounded=0;whiteSpace=wrap;html=1;align=left;verticalAlign=top;" vertex="1" parent="1">
          <mxGeometry x="-1560" y="-600" width="200" height="280" as="geometry" />
        </mxCell>
        <mxCell id="a-PpkgbKHKiEm6CQ7iPh-5" value="&lt;span style=&quot;font-size: 24px&quot;&gt;Service Information&lt;/span&gt;" style="text;html=1;strokeColor=none;fillColor=none;align=left;verticalAlign=middle;whiteSpace=wrap;rounded=0;" vertex="1" parent="1">
          <mxGeometry x="-2520" y="-220" width="390" height="40" as="geometry" />
        </mxCell>
        <mxCell id="a-PpkgbKHKiEm6CQ7iPh-6" value="&lt;span style=&quot;font-size: 24px&quot;&gt;Financial Information and Status&lt;/span&gt;" style="text;html=1;strokeColor=none;fillColor=none;align=left;verticalAlign=middle;whiteSpace=wrap;rounded=0;" vertex="1" parent="1">
          <mxGeometry x="-2515" y="150" width="390" height="40" as="geometry" />
        </mxCell>
      </root>
    </mxGraphModel>
  </diagram>
</mxfile>
